<svg width="200" height="166" viewBox="0 0 200 166" fill="none" xmlns="http://www.w3.org/2000/svg">
<path d="M99.9692 82.8118C77.1008 105.68 40.0196 105.68 17.1542 82.8118C-5.71743 59.9434 -5.71743 22.8685 17.1542 0" fill="url(#paint0_linear_1037_515)"/>
<path d="M17.1537 82.8118C-5.71792 59.9434 -5.71792 22.8685 17.1537 0V82.8118Z" fill="url(#paint1_linear_1037_515)"/>
<path d="M100.031 82.8745C122.903 60.0061 159.981 60.012 182.85 82.8809C205.715 105.743 205.718 142.824 182.85 165.693" fill="url(#paint2_linear_1037_515)"/>
<path d="M182.85 82.8809C205.715 105.743 205.719 142.824 182.85 165.693V82.8809Z" fill="url(#paint3_linear_1037_515)"/>
<defs>
<linearGradient id="paint0_linear_1037_515" x1="-58.7669" y1="49.9873" x2="130.094" y2="49.9873" gradientUnits="userSpaceOnUse">
<stop offset="0.012" stop-color="#E0B386"/>
<stop offset="0.65" stop-color="#DA498C"/>
<stop offset="1" stop-color="#961484"/>
</linearGradient>
<linearGradient id="paint1_linear_1037_515" x1="-9.83364" y1="8.0439" x2="73.9684" y2="112.54" gradientUnits="userSpaceOnUse">
<stop offset="0.012" stop-color="#E0B386"/>
<stop offset="0.65" stop-color="#DA498C"/>
<stop offset="1" stop-color="#961484"/>
</linearGradient>
<linearGradient id="paint2_linear_1037_515" x1="247.562" y1="119.75" x2="-0.882723" y2="107.916" gradientUnits="userSpaceOnUse">
<stop stop-color="#29D3DA"/>
<stop offset="0.519" stop-color="#0077FF"/>
<stop offset="0.999" stop-color="#064093"/>
<stop offset="1" stop-color="#084698"/>
</linearGradient>
<linearGradient id="paint3_linear_1037_515" x1="208.906" y1="125.529" x2="162.157" y2="123.31" gradientUnits="userSpaceOnUse">
<stop stop-color="#29D3DA"/>
<stop offset="0.519" stop-color="#0077FF"/>
<stop offset="0.999" stop-color="#064093"/>
<stop offset="1" stop-color="#084698"/>
</linearGradient>
</defs>
</svg>
