<svg width="113" height="17" viewBox="0 0 113 17" fill="none" xmlns="http://www.w3.org/2000/svg">
<path d="M3.52566 7.36952H3.12795V3.67267H2.67432V3.30689H3.12795V1.85404H3.52566V3.30689H4.24236V3.67267H3.52566V7.36952ZM6.3966 0.111445V3.9357H6.41524C6.52973 3.71581 6.70381 3.53199 6.91789 3.40492C7.13198 3.27785 7.37756 3.21259 7.627 3.21647C8.68341 3.21647 8.9734 3.86583 8.9734 4.91386V7.36541H8.57777V4.91386C8.57777 4.18435 8.4887 3.58636 7.59179 3.58636C6.56438 3.58636 6.3966 4.53369 6.3966 5.35978V7.36746H5.99889V0.111445H6.3966ZM11.4031 5.00016C11.4483 4.61125 11.636 4.25237 11.9304 3.99172C12.2249 3.73107 12.6056 3.58681 13.0002 3.58636C13.8412 3.58636 14.4626 4.25216 14.5599 5.00016H11.4031ZM14.9556 5.37417C14.9639 4.20285 14.2285 3.21853 12.9898 3.21853C11.7926 3.21853 11.0034 4.19463 11.0034 5.32485C11.0034 6.47767 11.776 7.45172 12.9898 7.45172C13.3686 7.46003 13.7419 7.36151 14.0664 7.16762C14.3909 6.97372 14.6533 6.69242 14.823 6.35643L14.4854 6.15916C14.1954 6.70577 13.6796 7.08183 13.0416 7.08183C12.0929 7.08183 11.3762 6.39958 11.4011 5.37211H14.9556V5.37417ZM24.02 4.246C23.8419 4.03896 23.6205 3.87289 23.3711 3.75933C23.1218 3.64577 22.8505 3.58745 22.5762 3.58842C21.6109 3.58842 20.8839 4.40218 20.8839 5.3269C20.8839 6.25163 21.6006 7.08388 22.5679 7.08388C22.8573 7.07943 23.1422 7.01197 23.4024 6.88627C23.6626 6.76057 23.8918 6.57969 24.0738 6.35643V6.89483C23.6624 7.25431 23.1327 7.45234 22.5845 7.45172C21.3727 7.45172 20.4841 6.51261 20.4841 5.32485C20.4841 4.14942 21.3893 3.21853 22.5948 3.21853C23.1251 3.21853 23.614 3.3747 24.02 3.71582V4.246ZM27.8748 3.58842C28.1094 3.58284 28.3427 3.62439 28.5607 3.71058C28.7787 3.79677 28.9769 3.92581 29.1433 4.08995C29.3097 4.25408 29.4409 4.44992 29.5291 4.66567C29.6172 4.88142 29.6605 5.11263 29.6562 5.3454C29.6579 5.57662 29.6128 5.80582 29.5235 6.01941C29.4343 6.233 29.3026 6.42662 29.1365 6.58877C28.9703 6.75092 28.773 6.8783 28.5563 6.96336C28.3396 7.04841 28.1078 7.08939 27.8748 7.08388C26.9095 7.08388 26.1742 6.27012 26.1742 5.3454C26.1742 4.40218 26.8992 3.58842 27.8748 3.58842ZM27.9017 3.21853C26.7148 3.21853 25.7765 4.17819 25.7765 5.3454C25.7765 6.49822 26.7231 7.45172 27.9017 7.45172C29.1052 7.45172 30.056 6.53727 30.056 5.33307C30.056 4.12887 29.1052 3.21853 27.9017 3.21853ZM32.4836 3.81241H32.5002C32.5984 3.62808 32.7468 3.47473 32.9283 3.36976C33.1099 3.2648 33.3175 3.2124 33.5276 3.21853C34.0517 3.21853 34.468 3.48361 34.6793 3.95625C34.7826 3.72888 34.9519 3.53723 35.1655 3.40581C35.3791 3.2744 35.6274 3.20919 35.8787 3.21853C36.9309 3.21853 37.1443 3.92954 37.1443 4.81522V7.36746H36.7466V4.76179C36.7466 4.13503 36.6492 3.58636 35.8683 3.58636C35.019 3.58636 34.814 4.32409 34.814 5.02688V7.36746H34.4163V4.85837C34.4163 4.22339 34.3003 3.58636 33.5028 3.58636C32.6431 3.58636 32.4836 4.4741 32.4836 5.13168V7.36746H32.0859V3.30689H32.4836V3.81241ZM41.5584 3.58842C42.561 3.58842 43.172 4.44738 43.172 5.37827C43.172 6.28451 42.534 7.08388 41.575 7.08388C40.5931 7.08388 39.9469 6.37287 39.9469 5.42143C39.9448 4.44738 40.5124 3.58842 41.5584 3.58842ZM39.9717 3.30689H39.5719V9.74093H39.9717V6.66262H39.9904C40.3259 7.18457 40.9391 7.45377 41.5688 7.45377C42.7992 7.45377 43.5697 6.55782 43.5697 5.37417C43.5697 4.18641 42.7992 3.21853 41.5501 3.21853C40.9473 3.21853 40.2907 3.51649 39.9924 4.03639H39.9738L39.9717 3.30689ZM47.1822 3.58842C48.1765 3.58842 48.8228 4.32614 48.8228 5.26525C48.8228 6.24135 48.2573 7.08388 47.2091 7.08388C46.2169 7.08388 45.5976 6.24135 45.5976 5.31046C45.5976 4.43095 46.2439 3.58842 47.1822 3.58842ZM49.1977 3.30689H48.7979V4.00968H48.7793C48.6013 3.75993 48.3644 3.55724 48.0893 3.41932C47.8141 3.2814 47.5091 3.21246 47.2009 3.21853C45.9705 3.21853 45.1999 4.12065 45.1999 5.31046C45.1999 6.50028 45.9787 7.45377 47.2195 7.45377C47.8202 7.45377 48.4768 7.15581 48.7772 6.64001H48.7958V7.36952H49.1956L49.1977 3.30689ZM52.023 3.93776H52.0396C52.1544 3.7177 52.3289 3.5338 52.5433 3.40674C52.7578 3.27968 53.0037 3.21449 53.2534 3.21853C54.3078 3.21853 54.6019 3.86789 54.6019 4.91591V7.36746H54.2021V4.91591C54.2021 4.18641 54.1131 3.58842 53.2182 3.58842C52.1908 3.58842 52.023 4.53575 52.023 5.36184V7.36952H51.6233V3.30689H52.023V3.93776ZM56.2839 3.30689H56.7002L58.4464 6.97908L60.0165 3.30689H60.4225L57.6738 9.74093H57.2699L58.2517 7.43733L56.2839 3.30689ZM66.4648 7.36952H66.0691V3.67267H65.6155V3.30689H66.0691V1.48415C66.0691 1.18618 66.0774 0.754644 66.2286 0.493665C66.3222 0.338592 66.4558 0.21112 66.6157 0.124419C66.7756 0.0377173 66.9559 -0.00506926 67.138 0.000478396C67.2643 0.000478396 67.3782 0.0169183 67.4942 0.0641821V0.421742C67.3886 0.405303 67.2809 0.37037 67.1649 0.37037C66.4751 0.37037 66.4648 1.05672 66.4648 1.56635V3.30894H67.4942V3.67472H66.4648V7.36952ZM70.9576 3.58842C71.1922 3.58284 71.4255 3.62439 71.6435 3.71058C71.8615 3.79677 72.0596 3.92581 72.2261 4.08995C72.3925 4.25408 72.5237 4.44992 72.6118 4.66567C72.7 4.88142 72.7432 5.11263 72.739 5.3454C72.7407 5.57662 72.6956 5.80582 72.6063 6.01941C72.5171 6.233 72.3854 6.42662 72.2193 6.58877C72.0531 6.75092 71.8558 6.8783 71.6391 6.96336C71.4224 7.04841 71.1906 7.08939 70.9576 7.08388C69.9923 7.08388 69.2591 6.27012 69.2591 5.3454C69.2591 4.40218 69.984 3.58842 70.9576 3.58842ZM70.9866 3.21853C70.4207 3.21853 69.8781 3.44152 69.478 3.83846C69.0779 4.2354 68.8531 4.77377 68.8531 5.33512C68.8531 5.89648 69.0779 6.43484 69.478 6.83178C69.8781 7.22872 70.4207 7.45172 70.9866 7.45172C72.1901 7.45172 73.1408 6.53727 73.1408 5.33307C73.1408 4.12887 72.1901 3.21853 70.9866 3.21853ZM75.5664 3.83296H75.5851C75.7425 3.46307 76.0346 3.21853 76.4675 3.21853C76.6291 3.21853 76.7637 3.25551 76.9025 3.31511L76.6912 3.66445C76.6051 3.61455 76.5071 3.58831 76.4074 3.58842C75.5105 3.58842 75.5664 4.69603 75.5664 5.29402V7.36952H75.1646V3.30689H75.5664V3.83296ZM83.8955 6.63796L85.3392 3.08701L86.7934 6.63796L88.2102 3.30689H88.6162L86.7664 7.58529L85.3227 4.07749L83.8851 7.58529L82.0436 3.30689H82.4496L83.8955 6.63796ZM92.1976 3.58842C92.4322 3.58284 92.6655 3.62439 92.8835 3.71058C93.1015 3.79677 93.2996 3.92581 93.4661 4.08995C93.6325 4.25408 93.7637 4.44992 93.8518 4.66567C93.94 4.88142 93.9832 5.11263 93.979 5.3454C93.9807 5.57662 93.9356 5.80582 93.8463 6.01941C93.757 6.233 93.6254 6.42662 93.4593 6.58877C93.2931 6.75092 93.0958 6.8783 92.8791 6.96336C92.6624 7.04841 92.4306 7.08939 92.1976 7.08388C91.2323 7.08388 90.4991 6.27012 90.4991 5.3454C90.497 4.40218 91.224 3.58842 92.1976 3.58842ZM92.2245 3.21853C91.0376 3.21853 90.0993 4.17819 90.0993 5.3454C90.0993 6.49822 91.0459 7.45172 92.2245 7.45172C93.4301 7.45172 94.3788 6.53727 94.3788 5.33307C94.3788 4.12887 93.4321 3.21853 92.2245 3.21853ZM96.8934 3.81241H96.9121C97.0105 3.62775 97.1591 3.4742 97.3411 3.36921C97.5231 3.26422 97.7311 3.21201 97.9416 3.21853C98.4615 3.21853 98.8799 3.48361 99.0932 3.95625C99.1956 3.72904 99.364 3.53737 99.577 3.40591C99.79 3.27444 100.038 3.20919 100.288 3.21853C101.343 3.21853 101.556 3.92954 101.556 4.81522V7.36746H101.156V4.76179C101.156 4.13503 101.059 3.58636 100.278 3.58636C99.4288 3.58636 99.2258 4.32409 99.2258 5.02688V7.36746H98.826V4.85837C98.826 4.22339 98.71 3.58636 97.9146 3.58636C97.0571 3.58636 96.8955 4.4741 96.8955 5.13168V7.36746H96.4978V3.30689H96.8955L96.8934 3.81241ZM104.071 5.00016C104.117 4.61161 104.305 4.25324 104.599 3.99275C104.893 3.73227 105.273 3.5877 105.668 3.58636C106.509 3.58636 107.128 4.25216 107.226 5.00016H104.071ZM107.625 5.37417C107.638 4.20285 106.9 3.21853 105.66 3.21853C104.462 3.21853 103.677 4.19463 103.677 5.32485C103.677 6.47767 104.444 7.45172 105.66 7.45172C106.038 7.46003 106.412 7.36151 106.736 7.16762C107.061 6.97372 107.323 6.69242 107.493 6.35643L107.159 6.15916C106.865 6.70577 106.351 7.08183 105.713 7.08183C104.765 7.08183 104.048 6.39958 104.073 5.37211H107.625V5.37417ZM110.142 3.93776H110.161C110.276 3.71769 110.451 3.53385 110.666 3.40681C110.88 3.27978 111.127 3.21458 111.377 3.21853C112.433 3.21853 112.721 3.86789 112.721 4.91591V7.36746H112.323V4.91591C112.323 4.18641 112.234 3.58842 111.337 3.58842C110.31 3.58842 110.142 4.53575 110.142 5.36184V7.36952H109.744V3.30689H110.142V3.93776Z" fill="#434C6D"/>
<path d="M12.0679 10.9883L12.302 11.1239H12.1032L12.0679 10.9883ZM12.8364 10.9883C13.1057 11.0171 13.3708 11.0355 13.6401 11.0561V11.0232C13.8555 11.0355 14.0648 11.0479 14.276 11.0561H14.3092V11.089H12.6686C12.7266 11.0561 12.7826 11.0253 12.8364 10.9883ZM11.4652 11.0253H11.5998V11.0581C11.5542 11.0499 11.5128 11.0376 11.4652 11.0253ZM12.4014 11.0253H12.4387V11.0581H12.3704C12.3822 11.0487 12.3927 11.0376 12.4014 11.0253ZM10.9991 11.0561H11.1317V11.089L10.9991 11.0561ZM14.477 11.0561C14.6447 11.0684 14.8125 11.0808 14.9782 11.089H15.0114V11.126C14.8332 11.1054 14.6551 11.0808 14.477 11.0561ZM15.1129 11.0561C15.123 11.0686 15.1349 11.0797 15.1481 11.089L15.1129 11.0561ZM15.3469 11.0561C15.4132 11.0684 15.4795 11.0808 15.5479 11.089V11.126C15.458 11.1292 15.3686 11.1402 15.2807 11.1588L15.3469 11.0561ZM15.8482 11.089H16.0491V11.1938C15.9717 11.1693 15.8936 11.1467 15.8151 11.126H15.8482V11.089ZM10.1623 11.126L10.2969 11.2904H10.1954C10.1836 11.2357 10.1725 11.1809 10.1623 11.126ZM11.1317 11.126H11.1669V11.1588H11.1317V11.126ZM9.9282 11.1568H10.0628V11.1938L9.9282 11.1568ZM9.76041 11.1938C9.79563 11.2451 9.8267 11.3027 9.86191 11.3582L9.69413 11.3212V11.2883C9.71475 11.2558 9.73687 11.2243 9.76041 11.1938ZM16.5173 11.1938C16.5504 11.2102 16.5836 11.2349 16.6188 11.2534L16.5173 11.1938ZM12.1674 11.2534C12.2691 11.2718 12.3633 11.3189 12.4387 11.389C12.447 11.3972 12.4594 11.4137 12.4719 11.4219V11.3582C13.0974 11.3787 13.4972 11.391 13.6753 11.391H13.7085V11.4239H13.6753C13.4868 11.4486 13.2983 11.4671 13.1078 11.4876V11.5246L13.1741 11.7219H13.2072L13.3729 11.6253C13.9135 11.5123 14.1683 11.8534 14.1766 11.8534V11.9212H14.245V11.8883H14.2781C14.2781 11.6726 14.5122 11.6911 14.5122 11.6233H14.479L14.5785 11.5863C14.568 11.5991 14.5569 11.6114 14.5453 11.6233L14.6468 11.7548L14.68 11.687C14.7918 11.7116 14.9037 11.7301 15.0135 11.7548V11.7178H15.0466L15.0135 11.6849L15.0797 11.6212V11.6541C15.1004 11.6952 15.1336 11.7178 15.1812 11.7178C15.0715 11.4815 15.0797 11.4568 15.3801 11.4568V11.4198H15.4153C15.4049 11.3952 15.3925 11.3767 15.3801 11.3561L15.5499 11.4198L15.5168 11.4568H15.5499V11.4856C15.4588 11.5061 15.2144 11.5945 15.2144 11.7178L15.4153 11.7548V11.8185C15.3594 11.839 15.3055 11.8657 15.2475 11.8863L15.3159 12.0178C15.2372 12.0815 15.1605 12.1493 15.0797 12.2192H15.0135V12.1822H15.0466C15.0714 12.1308 15.0922 12.0733 15.1149 12.0178C15.059 12.0301 15.0031 12.0425 14.9472 12.0507H14.914C14.876 12.1039 14.8428 12.1603 14.8146 12.2192C14.7794 12.1678 14.7628 11.9192 14.8477 11.9192H14.883C14.8912 11.9068 14.9057 11.8986 14.9161 11.8863C14.8015 11.8625 14.6892 11.8288 14.5805 11.7856H14.5474C14.6033 11.8288 14.6592 11.8781 14.7172 11.9171V11.9849L14.5826 12.0178L14.651 12.1493H14.6157V12.1822C14.5163 12.1986 14.4148 12.2069 14.3154 12.2192C14.3053 12.1738 14.2943 12.1285 14.2823 12.0836C14.2702 12.0737 14.2591 12.0627 14.2491 12.0507H14.1476C14.1352 12.0938 14.1269 12.1391 14.1165 12.1822H14.0793L13.9135 12.0815H13.8783V12.1144L13.8452 12.3199L14.013 12.3487L13.9467 12.4493H14.1787C14.2346 12.4165 14.2926 12.3856 14.3485 12.3487V12.3199H14.3796C14.4355 12.3713 14.4915 12.4288 14.5474 12.4843C14.595 12.4247 14.6365 12.3487 14.7172 12.3487L14.8498 12.55V12.587C14.8063 12.587 14.6033 12.5706 14.247 12.55V12.6507H14.2802C14.3237 12.6754 14.3713 12.6939 14.4127 12.7185V12.7514L13.9798 12.7185C14.0461 12.6939 14.1145 12.6754 14.1787 12.6507V12.587L12.8406 12.6836C12.8406 12.7432 12.8716 12.7802 12.9089 12.8192L12.8406 12.9836C12.9545 12.959 13.0436 12.9364 13.1098 12.9158V13.0165C13.1198 13.0285 13.1309 13.0395 13.143 13.0494L12.0079 13.0823C12.0162 12.9569 12.128 12.7535 12.2751 12.7535L12.3082 12.8809C12.34 12.8965 12.3733 12.9089 12.4076 12.9179L12.4449 12.7535L12.5444 12.6857V12.6528H12.5091C12.2005 12.5932 11.9457 12.7843 11.6744 12.7843V12.848C11.7386 12.8953 11.8069 12.9405 11.8732 12.9836L11.4072 13.0802V12.848V12.8192H11.5729V12.7514C11.4279 12.7638 11.285 12.7761 11.1379 12.7843V12.8213H11.1731V12.8501C11.2166 12.8665 11.2622 12.8747 11.3036 12.8829H11.3388L11.2394 13.0843C9.88263 13.1973 8.57558 13.7152 7.29132 13.7152L6.42962 14.0974C5.75621 14.4691 5.11529 14.8959 4.51359 15.3735C4.02681 15.7701 3.69746 16.6024 3.13405 16.8099C2.33242 17.11 1.20766 16.8737 0.538598 16.4688C0.312817 16.3373 0.00418033 16.103 3.75589e-05 15.8071C-0.00824799 15.4907 1.3568 13.7481 1.6385 13.7481C2.12114 13.5796 2.65141 13.0206 3.17755 13.0206V12.9877C3.25626 12.9631 3.33497 12.9446 3.41161 12.9199H3.44475C3.60011 12.8192 3.76789 12.7473 3.9481 12.6877H4.01439L3.97917 12.7555C3.72025 13.2179 4.51359 12.7987 4.51359 12.7227H4.5488L4.71866 12.7864C5.12879 12.4247 5.89106 12.324 6.45448 12.324C6.57669 12.2439 6.70305 12.1678 6.82319 12.0877V12.0548H6.95783V12.0219L7.39282 11.8904C7.38039 11.8781 7.37003 11.8699 7.3576 11.8534V11.7897C7.3366 11.8027 7.3144 11.8137 7.29132 11.8226L6.92468 11.7897C6.98683 11.7424 7.0469 11.689 7.12561 11.689L7.15668 11.8205C7.30582 11.7239 7.37418 11.5883 7.59167 11.5883L7.72631 11.8205H7.89409C7.92931 11.6685 8.09502 11.5226 8.26073 11.5226L8.32908 11.5554V11.5883C8.21516 11.613 8.10538 11.6315 7.99559 11.6561V11.689H8.02666L7.99559 11.7219V11.7589C8.19444 11.7383 8.3933 11.7157 8.59629 11.6582C8.66258 11.6705 8.73093 11.6829 8.79515 11.6911C8.965 11.6274 9.13071 11.5596 9.29849 11.4897H9.80184V11.4609C10.0566 11.4609 10.3114 11.4486 10.5703 11.4239H10.6014L10.6387 11.3602L10.7029 11.4609V11.4239C10.7257 11.4034 10.7257 11.3808 10.7029 11.3602L11.7075 11.3232H11.7386L12.041 11.391V11.3582C12.0804 11.3212 12.1259 11.2904 12.1674 11.2534Z" fill="#434C6D"/>
<path d="M14.009 11.2903L14.1748 11.4218C14.2079 11.393 14.1955 11.3581 14.1748 11.3211L14.444 11.4567H14.4088V11.4855L13.7066 11.4567V11.4197H13.7398V11.3869H13.9428C13.9552 11.3663 13.9635 11.3437 13.9759 11.3191C13.9863 11.3108 13.9987 11.3026 14.009 11.2903ZM9.25935 11.3211H9.29249L9.32564 11.3581L8.92793 11.4218V11.3889H8.99421V11.356L9.02736 11.3889H9.19514L9.26142 11.356L9.25935 11.3211ZM17.3191 11.3211C17.375 11.3458 17.431 11.3684 17.489 11.3889C17.431 11.3704 17.3771 11.3458 17.3191 11.3211ZM14.7133 11.3581H14.7465C14.6574 11.3992 14.5704 11.4465 14.4792 11.4855V11.4567H14.5124V11.4197L14.7133 11.3581ZM8.72493 11.4218L8.75808 11.5533H8.72493V11.5204H8.65658C8.65658 11.4793 8.67936 11.4465 8.72493 11.4218ZM18.0565 11.4588L18.2222 11.4876H18.2575V11.5245C18.1912 11.4978 18.1228 11.4793 18.0565 11.4588ZM11.9356 11.4855L11.9024 11.654H12.1365V11.5862C12.1676 11.6109 12.2028 11.6293 12.238 11.654V11.6211H12.2711V11.5841C12.1614 11.5348 12.0516 11.5184 11.9356 11.4855ZM12.4016 11.4855C12.3809 11.5328 12.3581 11.578 12.3354 11.6211H12.4016V11.654H12.6357L12.4016 11.4855ZM12.7372 11.4855L12.7724 11.5862C12.7579 11.5554 12.7517 11.5225 12.7372 11.4855ZM12.8366 11.4855V11.5533H12.8035V11.5862C12.8946 11.5533 12.9837 11.5225 13.0728 11.4855H12.8366ZM15.7511 11.4855L15.8816 11.5225H15.8484V11.5554C15.8147 11.5339 15.7822 11.5106 15.7511 11.4855ZM15.9831 11.4855L16.3497 11.5533V11.5862H15.9831V11.4855ZM11.7326 11.5225L11.5337 11.6869V11.654L11.5669 11.5862H11.5006V11.654H11.4654V11.7177H11.5337V11.7547L11.7326 11.5225ZM13.2737 11.5554L13.3068 11.6232C13.2954 11.6008 13.2843 11.5782 13.2737 11.5554ZM16.5838 11.5554C16.7163 11.5759 16.8531 11.5985 16.9856 11.6232V11.6561L16.5506 11.5883C16.561 11.5739 16.5755 11.5677 16.5838 11.5554ZM9.36292 11.5862L9.39399 11.654C9.40642 11.6663 9.41678 11.6787 9.42921 11.6869C9.40403 11.6554 9.38184 11.6217 9.36292 11.5862ZM11.2665 11.5862V11.6232L10.7984 11.7547L10.8315 11.6869H10.7632L8.55508 11.9869C8.26509 12.0629 7.97716 12.139 7.68717 12.2191L7.72238 12.252C7.83838 12.2356 7.95024 12.2232 8.05795 12.1842V12.2212C8.04345 12.2582 7.95438 12.4184 8.05795 12.4184L8.09109 12.3856L8.05795 12.3486C8.10314 12.2946 8.14734 12.2398 8.19052 12.1842H8.22366C8.25844 12.163 8.2923 12.1404 8.32516 12.1164L9.26142 12.0527V12.0855C9.22621 12.0979 9.19514 12.1102 9.162 12.1184V12.1554H9.26142C9.45199 11.9746 9.88698 11.8903 10.1645 11.8903C10.2184 11.8759 10.2743 11.8677 10.3303 11.8513C10.6451 11.8205 11.1236 11.8842 11.2665 11.5862ZM17.0188 11.6232H17.0871C17.0527 11.6323 17.0188 11.6433 16.9856 11.6561L17.0188 11.6232ZM7.58567 11.7198V11.8513H7.68717C7.67494 11.8197 7.66457 11.7875 7.6561 11.7547C7.66522 11.7414 7.67562 11.729 7.68717 11.7177L7.58567 11.7198ZM12.7372 11.7547C12.7724 11.8184 12.8035 11.8862 12.8366 11.9561V11.9191C12.8118 11.8595 12.7869 11.7958 12.7372 11.7547ZM13.9096 11.7547L14.0753 11.8184C14.0215 11.7999 13.9635 11.7753 13.9096 11.7547ZM6.61626 11.8205C6.68255 11.8533 6.74883 11.8842 6.74883 11.9561C6.32005 12.0486 5.78149 12.0835 5.78149 12.0835L5.91613 12.0198L6.01556 12.1164C6.02763 12.1065 6.03872 12.0955 6.0487 12.0835V12.1164C6.21539 11.9801 6.4086 11.8794 6.61626 11.8205ZM11.8362 11.8205C11.8685 11.8336 11.9018 11.8445 11.9356 11.8533V11.8903H11.9687L11.8362 11.8205ZM18.0897 11.8205H18.1228C18.133 11.833 18.1448 11.844 18.158 11.8533C18.1378 11.8687 18.1155 11.8812 18.0917 11.8903L18.0897 11.8205ZM16.3166 11.8513C16.3829 11.8883 16.4491 11.9191 16.5175 11.9561L16.4491 12.1164H16.5817L16.5486 12.0835L16.9504 11.9561C16.9877 11.989 17.0291 12.0198 17.0851 12.0198V12.0527H17.0519V12.1164H16.7143C16.7143 12.1677 16.7453 12.2171 16.7826 12.252V12.3835L16.9504 12.3465H16.9836L17.0519 12.1821H17.2508V12.2191C17.2611 12.2314 17.2756 12.2397 17.2839 12.252L17.1845 12.4164H17.317L17.2839 12.3835L17.52 12.0506H17.5511C17.6858 12.0753 17.8204 12.0938 17.953 12.1143V12.0814L18.4895 12.3465H18.4542C18.3652 12.3178 18.2761 12.2828 18.1891 12.2499C17.9882 12.3589 17.866 12.4267 17.8204 12.4472H17.7852C17.7852 12.1431 17.4165 12.2068 17.4475 12.4308C17.4272 12.4665 17.4165 12.5069 17.4165 12.5479C16.7039 12.4842 15.9893 12.4164 15.2747 12.3465L15.2415 12.3178C15.314 12.2088 15.3534 12.1369 15.3741 12.1123V12.0794C15.3627 12.0694 15.3523 12.0584 15.343 12.0465C15.4756 11.9951 15.6102 11.9376 15.7449 11.8821C15.7449 11.9253 15.7262 11.9499 15.6765 11.9499L15.6434 12.1472C15.5792 12.1184 15.5129 12.0794 15.4424 12.0794V12.1123H15.4756V12.1492L15.4424 12.2499C15.6164 12.2335 15.7946 12.2027 15.9458 12.2828C16.0908 12.2314 16.2358 12.1739 16.3787 12.1143C16.3829 12.0444 16.3476 11.9438 16.3166 11.8513Z" fill="#434C6D"/>
<path d="M16.9856 11.8513H17.0187L17.054 11.9191L16.9856 11.9561V11.8513ZM7.91914 11.8883V11.9212C7.91002 11.9345 7.89962 11.9469 7.88807 11.9582H7.9875C7.98957 11.913 7.96885 11.8883 7.91914 11.8883ZM10.7632 11.8883L10.8315 11.989V12.0219H10.8647C10.8781 11.9739 10.9014 11.9291 10.933 11.8904L10.7632 11.8883ZM13.139 11.8883V11.9212H13.1059C13.1411 11.9582 13.1846 11.989 13.2405 11.989L13.2737 11.9212H13.2405L13.139 11.8883ZM13.8081 11.8883V11.989L13.8412 11.9561L13.8081 11.8883ZM15.9168 11.8883C16.0307 11.9089 16.1405 11.9315 16.2503 11.9561V12.0198L15.952 11.9561L15.9168 11.9191V11.8883ZM10.1314 11.9561C10.092 11.989 10.15 12.0198 10.1977 12.0527C10.1742 12.0215 10.1521 11.9893 10.1314 11.9561ZM10.4628 11.9561C10.4732 12.0075 10.4877 12.065 10.4959 12.1164V12.1534H10.5291C10.5063 12.0835 10.4897 12.0198 10.4628 11.9561ZM17.3191 11.9561C17.344 11.9767 17.346 11.9767 17.3191 11.9561V11.9561ZM11.4343 11.989V12.0856C11.5026 12.0774 11.5669 12.065 11.6352 12.0527C11.5669 12.0322 11.5006 12.0075 11.4343 11.989ZM13.5077 12.0527V12.2849H13.4725V12.3219H13.0044L12.9713 12.3507C12.926 12.3303 12.8811 12.309 12.8366 12.287V12.324C12.8035 12.3527 12.7724 12.3877 12.7372 12.4205V12.4534C12.818 12.4452 12.8967 12.4329 12.9713 12.4205L13.2405 12.5521L13.3068 12.4514C13.3959 12.4884 13.485 12.5192 13.574 12.5521V12.5192H13.6403C13.6548 12.4596 13.6672 12.3979 13.7066 12.3507H13.6735L13.5077 12.0527ZM15.6806 12.0527L15.749 12.1842H15.6806V12.0527ZM5.37755 12.0835L5.61369 12.2192L4.50757 12.5849V12.5479H4.54278C4.83527 12.4198 5.11479 12.2643 5.37755 12.0835ZM6.64938 12.0835H6.81923V12.1164C6.74052 12.1328 6.66388 12.1411 6.58517 12.1534C6.60795 12.1411 6.62867 12.1328 6.65145 12.1164L6.64938 12.0835ZM9.8621 12.0835L9.82689 12.1842H9.89524L9.8621 12.0835ZM12.5383 12.0835C12.5698 12.1075 12.6023 12.1301 12.6357 12.1513C12.6025 12.1328 12.5715 12.1082 12.5383 12.0835ZM13.1059 12.0835L12.9381 12.1842L13.2737 12.0835H13.1059ZM17.1202 12.0835H17.1865L17.1202 12.1513V12.0835ZM12.2048 12.1164V12.1534L12.1386 12.1863H12.1054C12.1386 12.2027 12.1696 12.2109 12.2048 12.2233H12.2401C12.2587 12.1863 12.2836 12.1554 12.3043 12.1185L12.2048 12.1164ZM11.4343 12.1534V12.2849C11.4736 12.2479 11.513 12.2212 11.5669 12.2212V12.2541L11.6 12.3507H11.6331V12.3219V12.2212V12.1842L11.4343 12.1534ZM11.9024 12.1534L11.8672 12.2541V12.2212L11.9024 12.1534ZM6.3511 12.1842C6.38217 12.2007 6.41531 12.2089 6.44846 12.2212L6.38217 12.2541C6.37127 12.2436 6.3609 12.2327 6.3511 12.2212V12.1842ZM7.45515 12.1842C7.35365 12.2212 7.25423 12.252 7.15273 12.2849V12.3486C7.2418 12.3856 7.33294 12.4164 7.42201 12.4493C7.40958 12.4411 7.39922 12.4288 7.38887 12.4164L7.62293 12.2849V12.2212C7.567 12.2089 7.50901 12.2007 7.45515 12.1842ZM17.5863 12.2849H17.723V12.3219L17.5863 12.2849ZM17.8245 12.2849V12.3219L17.8577 12.3507H17.8908V12.3219L17.8245 12.2849ZM18.6924 12.2849C18.7007 12.3609 18.7131 12.4411 18.7256 12.5171H18.6924C18.68 12.4493 18.6717 12.3856 18.6551 12.3198C18.6699 12.3109 18.6826 12.299 18.6924 12.2849ZM12.3353 12.3219C12.3933 12.3507 12.4472 12.3856 12.5031 12.4185L12.47 12.3856L12.3706 12.3486L12.3353 12.3219ZM6.9518 12.3486V12.3856H6.88345V12.4185H7.01809C6.99396 12.3972 6.97178 12.3738 6.9518 12.3486ZM17.4889 12.3486H17.6547C17.7168 12.4123 17.7831 12.476 17.8224 12.55L17.4889 12.5171V12.3486ZM11.1671 12.3856V12.5171C11.107 12.5171 11.0676 12.4699 11.0324 12.4164C11.0225 12.4284 11.0114 12.4394 10.9993 12.4493V12.4863L11.0987 12.6836C11.1546 12.6753 11.2106 12.663 11.2665 12.6507L11.4654 12.4185C11.3639 12.4185 11.2665 12.402 11.1671 12.3856ZM12.5383 12.3856C12.5818 12.4185 12.6274 12.4493 12.6688 12.4863V12.4185L12.5383 12.3856ZM18.158 12.3856H18.1932L18.2243 12.4493L18.158 12.4863V12.3856ZM6.71566 12.4185C6.66181 12.4431 6.60588 12.4616 6.54788 12.4863V12.5192H6.68252C6.70738 12.4863 6.72809 12.4514 6.74881 12.4185H6.71566ZM10.6327 12.4185L10.3302 12.587C10.5063 12.5623 10.6865 12.5397 10.8647 12.5192L10.6637 12.5521V12.5192L10.6327 12.4185ZM11.8009 12.4185L11.4654 12.4863V12.5192H11.5006V12.5521C11.5793 12.5726 11.658 12.5952 11.7326 12.6199C11.7457 12.5764 11.7575 12.5326 11.7678 12.4884L11.9024 12.5521H11.9356L11.8009 12.4185ZM4.27557 12.4493L4.44335 12.5849V12.6178L4.0415 12.7493V12.7165L4.27557 12.4493ZM15.2125 12.4493L15.2456 12.4863C15.2364 12.4725 15.2252 12.46 15.2125 12.4493ZM19.3615 12.4493H19.4609V12.5171H19.4257L19.3615 12.4493ZM15.0447 12.4863C15.4341 12.6548 15.6827 12.5192 16.0493 12.5192L16.184 12.6507H16.2171C16.3041 12.6178 16.3953 12.587 16.4843 12.55L16.5506 12.6815L16.853 12.7185V12.7514H16.8178L16.7515 12.9158H16.8178L16.853 12.7514H16.8862V12.7843L17.1202 12.7514H17.1534V12.6199V12.587H17.1865L17.286 12.6836C17.2538 12.7076 17.2206 12.7302 17.1865 12.7514C17.3522 12.7925 17.5221 12.848 17.6878 12.848L17.723 12.8192C17.8224 12.8623 17.9219 12.9076 18.0213 12.9466L18.0565 12.9137L18.0897 12.9466C18.1104 12.9713 18.1332 12.9939 18.1559 13.0144H17.8867V13.0473L17.9529 13.148C17.8991 13.1233 17.8432 13.1048 17.7852 13.0802C17.7727 13.072 17.7624 13.0596 17.752 13.0473C17.5179 13.072 17.2818 13.0905 17.0498 13.1151L17.0146 12.8788C17.002 12.8694 16.9909 12.8584 16.9815 12.8459C16.9131 12.8788 16.3455 13.0987 16.3455 13.0144H16.3103V12.9815C16.3616 12.931 16.4178 12.8855 16.4781 12.8459V12.8171C16.2316 12.8603 15.9872 12.9055 15.7448 12.9445V12.9117C15.7821 12.8706 15.8505 12.8439 15.9106 12.8151V12.7781H15.8753V12.7452C15.72 12.7575 15.5646 12.7699 15.4072 12.7781H15.372L15.4403 12.8747C15.3968 12.8747 15.2519 12.8911 15.0054 12.9117C14.9929 12.924 14.9846 12.9363 14.9722 12.9445V12.9117H14.9391C14.9293 12.802 14.9182 12.6923 14.9059 12.5829C14.9577 12.55 15.0012 12.5171 15.0447 12.4863ZM18.1911 12.4863L18.2574 12.5192C18.2195 12.5792 18.1743 12.6344 18.1228 12.6836V12.6507H18.0897C18.1192 12.5934 18.1532 12.5385 18.1911 12.4863ZM19.4941 12.4863L19.6598 12.6178H19.5624V12.5849C19.5438 12.55 19.5168 12.5171 19.4941 12.4863ZM10.1625 12.5171L8.99212 12.7822V12.8459C9.05834 12.861 9.12544 12.872 9.19304 12.8788L9.62596 12.7514V12.7843L10.1293 12.7514V12.7185L10.2598 12.55C10.2308 12.5377 10.1956 12.5294 10.1625 12.5171ZM6.64938 12.55L6.08182 12.8192V12.9487H6.11496V12.9158C6.13877 12.8942 6.16158 12.8716 6.18332 12.848L6.08182 12.7843L6.28274 12.848L6.81716 12.6199V12.5521L6.64938 12.55ZM8.85955 12.6178L8.52399 12.7493V12.9836C8.65655 12.9281 8.78912 12.8706 8.92583 12.8192C8.90342 12.7522 8.88132 12.685 8.85955 12.6178ZM18.6924 12.6178H18.7256L18.7566 12.6507C18.7276 12.7185 18.6448 12.7267 18.5909 12.6836V12.6507C18.6241 12.6384 18.6572 12.626 18.6924 12.6178ZM6.78609 12.6507V12.6836H6.71566V12.7206H6.85031C6.82959 12.6938 6.80681 12.6754 6.78609 12.6507ZM10.3986 12.6507V12.7185C10.4193 12.6938 10.4421 12.6754 10.4649 12.6507H10.3986ZM5.78147 12.6815L5.74833 12.8788V12.9158H5.81254V12.8788C5.87054 12.8624 5.92647 12.8377 5.98239 12.8192V12.7822C5.91399 12.7515 5.84695 12.7179 5.78147 12.6815ZM13.6755 12.7514L13.8433 12.8192H13.8102V12.848H13.777L13.6755 12.7843V12.7514Z" fill="#434C6D"/>
<path d="M16.0493 12.7513V12.7842C16.0162 12.8212 15.9831 12.8479 15.9499 12.8808H15.9831V12.8212C16.0307 12.8212 16.0763 12.8294 16.1156 12.85C16.095 12.8162 16.0729 12.7833 16.0493 12.7513ZM13.34 12.8192C13.3835 12.8397 13.4187 12.8705 13.4394 12.9157H13.371V12.9486H13.34V12.8192ZM19.4941 12.8192L19.6598 12.8479V12.8808H19.6266V12.9178H19.5956C19.538 12.8959 19.4806 12.8733 19.4236 12.85L19.4941 12.8192ZM12.9713 12.8479C13.0085 12.8726 13.0479 12.8911 13.0728 12.9157L12.9713 12.8479ZM5.37755 12.8788C5.18905 12.9836 5.00056 13.0801 4.80999 13.1788L4.50757 13.1459V13.411C4.54278 13.4028 4.57592 13.3904 4.60907 13.3781C4.76625 13.2689 4.95368 13.2108 5.14556 13.2116V13.1788H5.1787C5.21391 13.1233 5.24705 13.0699 5.27812 13.0144V13.0473C5.34441 13.0678 5.51219 12.9959 5.51219 12.9157C5.46639 12.907 5.42137 12.8946 5.37755 12.8788ZM11.5006 12.8788V12.9157C11.5105 12.9277 11.5216 12.9387 11.5337 12.9486H11.5669V12.9157C11.5441 12.9075 11.5254 12.8952 11.5006 12.8788ZM7.78657 12.9157C7.70993 12.9959 7.63122 13.0719 7.55458 13.1479C7.56701 13.1603 7.57736 13.1685 7.58565 13.1808V13.2137L7.98957 13.0822V13.0185C7.91914 12.9836 7.85493 12.9466 7.78657 12.9157ZM8.15735 12.9157L8.05793 13.0801H8.12421V13.1171H8.19049C8.25264 13.0534 8.32513 13.0041 8.32513 12.9157H8.15735ZM5.67997 12.9835L5.64683 13.0164V13.0493C5.65681 13.0613 5.66791 13.0723 5.67997 13.0822H5.71312C5.70331 13.0489 5.69226 13.016 5.67997 12.9835ZM9.65911 12.9835L9.52654 13.1151V13.1479H9.55968V13.1808C9.63839 13.1932 9.71918 13.2055 9.79582 13.2137V13.1808H9.8621L9.65911 12.9835ZM13.6755 12.9835L14.0111 13.0164V13.0801H13.978V13.1171C13.7563 13.0925 13.5326 13.074 13.3089 13.0493L13.6755 12.9835ZM14.3757 13.0164L14.3446 13.1171C14.3549 13.0925 14.3674 13.074 14.3757 13.0493V13.0164ZM6.91866 13.0801L6.98495 13.3493H7.01809V13.3123C7.03011 13.2919 7.0405 13.2706 7.04916 13.2486C7.00566 13.1932 6.96216 13.1397 6.91866 13.0801ZM15.0447 13.0801L15.2456 13.1171V13.1808L15.0116 13.1479C15.024 13.1397 15.0344 13.1233 15.0447 13.1151V13.0801ZM16.2834 13.1151C16.3704 13.1233 16.4615 13.1397 16.5506 13.1479V13.1808C16.4611 13.1608 16.372 13.1389 16.2834 13.1151ZM18.8913 13.1151H18.9265L18.9596 13.1479L18.8913 13.1808V13.1151ZM18.4563 13.1479H18.4915V13.1808C18.4501 13.1808 18.4335 13.1767 18.4563 13.1479ZM18.9928 13.1479L19.0922 13.2116C19.0591 13.1932 19.0259 13.1685 18.9928 13.1479ZM17.1534 13.2116L17.2528 13.2486V13.3123C17.2217 13.2815 17.1865 13.2486 17.1534 13.2116ZM17.3191 13.2486H17.3522L17.3895 13.2815C17.3667 13.2938 17.344 13.3062 17.3212 13.3144L17.3191 13.2486ZM9.92839 13.413H9.9636V13.4459H9.89732C9.90869 13.4359 9.91909 13.4249 9.92839 13.413ZM10.063 13.413H10.1956V13.5446H10.1625L10.063 13.413Z" fill="#434C6D"/>
</svg>
